<?xml version="1.0" encoding="utf-8"?>
<!-- Generator: Adobe Illustrator 18.1.1, SVG Export Plug-In . SVG Version: 6.00 Build 0)  -->
<svg version="1.1" xmlns="http://www.w3.org/2000/svg" xmlns:xlink="http://www.w3.org/1999/xlink" x="0px" y="0px"
	 viewBox="0 0 198.1 146" style="enable-background:new 0 0 198.1 146;" xml:space="preserve">
<g id="Layer_1" style="display:none;">
	<g style="display:inline;">
		<g>
			<path style="fill:#D88343;" d="M84.7,12.4v94.9H63.1l0-64l-8.6,64H39.2l-9.1-62.6l0,62.6H8.6V12.4h31.9
				c0.9,5.7,1.9,12.4,2.9,20.2l3.5,24.1l5.7-44.3H84.7z"/>
		</g>
		<g>
			<path style="fill:#38A4B5;" d="M139.3,12.4v94.9h-21.6l0-64l-8.6,64H93.8l-9.1-62.6l0,62.6H63.2V12.4h31.9
				C96,18.1,97,24.8,98,32.5l3.5,24.1l5.7-44.3H139.3z"/>
		</g>
		<g>
			<path style="fill:#D88343;" d="M134,12.4h18.5c11.9,0,20,0.5,24.2,1.6c4.2,1.1,7.4,2.9,9.6,5.4c2.2,2.5,3.6,5.3,4.1,8.3
				c0.5,3.1,0.8,9.1,0.8,18.1v33.2c0,8.5-0.4,14.2-1.2,17.1c-0.8,2.9-2.2,5.1-4.2,6.7c-2,1.6-4.5,2.8-7.4,3.4s-7.3,1-13.2,1H134
				V12.4z M158.6,28.6V91c3.6,0,5.7-0.7,6.6-2.1c0.8-1.4,1.2-5.3,1.2-11.6V40.4c0-4.3-0.1-7.1-0.4-8.3c-0.3-1.2-0.9-2.1-1.9-2.7
				C163.2,28.9,161.3,28.6,158.6,28.6z"/>
		</g>
		<g>
			<path style="fill:#D88343;" d="M17.3,114.8l-0.1,2.2c0.5-0.9,1.2-1.5,1.9-1.9c0.7-0.4,1.6-0.6,2.5-0.6c1.8,0,3.3,0.9,4.4,2.6
				c0.6-0.9,1.2-1.5,2-1.9c0.7-0.4,1.5-0.6,2.4-0.6c1.2,0,2.1,0.3,2.9,0.9c0.8,0.6,1.3,1.3,1.5,2.1c0.2,0.8,0.3,2.2,0.3,4v16.1h-6.7
				v-14.8c0-1.9-0.1-3.1-0.2-3.6c-0.1-0.5-0.4-0.7-0.9-0.7c-0.5,0-0.8,0.2-0.9,0.7c-0.1,0.5-0.2,1.7-0.2,3.6v14.8h-6.7V123
				c0-2.2-0.1-3.6-0.2-4s-0.4-0.7-0.9-0.7c-0.3,0-0.6,0.1-0.8,0.4c-0.2,0.2-0.3,0.5-0.4,0.9c0,0.3,0,1.1,0,2.1v15.7h-6.7v-22.7H17.3
				z"/>
			<path style="fill:#D88343;" d="M51.9,114.8l-2,16.4c-0.3,2.6-0.6,4.4-0.8,5.3c-0.2,0.9-0.6,1.7-1.1,2.3c-0.5,0.6-1.2,1.1-2,1.4
				c-0.9,0.3-2.3,0.4-4.2,0.4h-4.2V137c1.1,0,1.8-0.1,2.1-0.2c0.3-0.1,0.5-0.4,0.5-0.7c0-0.2-0.1-1-0.4-2.4l-3.8-19h6.3l2.3,15.3
				l1.1-15.3H51.9z"/>
			<path style="fill:#D88343;" d="M60,114.8l-0.1,2.2c0.5-0.9,1.2-1.5,1.9-1.9c0.7-0.4,1.6-0.6,2.5-0.6c1.8,0,3.3,0.9,4.4,2.6
				c0.6-0.9,1.2-1.5,2-1.9c0.7-0.4,1.5-0.6,2.4-0.6c1.2,0,2.1,0.3,2.9,0.9c0.8,0.6,1.3,1.3,1.5,2.1c0.2,0.8,0.3,2.2,0.3,4v16.1h-6.7
				v-14.8c0-1.9-0.1-3.1-0.2-3.6c-0.1-0.5-0.4-0.7-0.9-0.7c-0.5,0-0.8,0.2-0.9,0.7c-0.1,0.5-0.2,1.7-0.2,3.6v14.8h-6.7V123
				c0-2.2-0.1-3.6-0.2-4s-0.4-0.7-0.9-0.7c-0.3,0-0.6,0.1-0.8,0.4c-0.2,0.2-0.3,0.5-0.4,0.9c0,0.3,0,1.1,0,2.1v15.7h-6.7v-22.7H60z"
				/>
			<path style="fill:#D88343;" d="M95.8,126.5h-8.9v4.9c0,1,0.1,1.7,0.2,2c0.1,0.3,0.4,0.4,0.9,0.4c0.5,0,0.9-0.2,1.1-0.6
				c0.2-0.4,0.3-1.2,0.3-2.3v-3h6.5v1.7c0,1.4-0.1,2.5-0.3,3.2s-0.6,1.6-1.2,2.4c-0.6,0.9-1.5,1.5-2.5,1.9c-1,0.4-2.2,0.6-3.8,0.6
				c-1.5,0-2.7-0.2-3.9-0.6c-1.1-0.4-2-1-2.6-1.7c-0.6-0.7-1.1-1.5-1.3-2.4c-0.2-0.9-0.4-2.2-0.4-3.9v-6.6c0-2,0.3-3.5,0.8-4.7
				c0.5-1.1,1.4-2,2.6-2.6c1.2-0.6,2.6-0.9,4.2-0.9c1.9,0,3.5,0.4,4.8,1.1c1.3,0.7,2.1,1.7,2.6,2.9c0.5,1.2,0.8,2.9,0.8,5.1V126.5z
				 M88.9,122.8v-1.7c0-1.2-0.1-1.9-0.2-2.3c-0.1-0.3-0.4-0.5-0.8-0.5c-0.5,0-0.8,0.1-0.9,0.4c-0.1,0.3-0.2,1.1-0.2,2.4v1.7H88.9z"
				/>
			<path style="fill:#D88343;" d="M113.8,109.8v27.7h-6.9v-1.6c-0.7,0.7-1.4,1.2-2.1,1.5c-0.7,0.3-1.5,0.5-2.3,0.5
				c-1.1,0-2-0.3-2.8-0.8c-0.8-0.6-1.3-1.2-1.5-2c-0.2-0.7-0.3-1.9-0.3-3.6v-10.6c0-1.7,0.1-3,0.3-3.7c0.2-0.7,0.7-1.4,1.5-1.9
				c0.8-0.6,1.7-0.8,2.9-0.8c0.9,0,1.6,0.2,2.3,0.5c0.7,0.3,1.4,0.8,1.9,1.4v-6.4H113.8z M106.9,120.5c0-0.8-0.1-1.4-0.2-1.7
				c-0.1-0.3-0.4-0.4-0.8-0.4c-0.4,0-0.7,0.1-0.8,0.4c-0.1,0.3-0.2,0.8-0.2,1.7v11.1c0,0.9,0.1,1.5,0.2,1.8c0.1,0.3,0.4,0.4,0.8,0.4
				c0.4,0,0.7-0.2,0.9-0.5c0.1-0.3,0.2-1.1,0.2-2.4V120.5z"/>
			<path style="fill:#D88343;" d="M131.9,109.8v27.7H125v-1.6c-0.7,0.7-1.4,1.2-2.1,1.5c-0.7,0.3-1.5,0.5-2.3,0.5
				c-1.1,0-2-0.3-2.8-0.8c-0.8-0.6-1.3-1.2-1.5-2c-0.2-0.7-0.3-1.9-0.3-3.6v-10.6c0-1.7,0.1-3,0.3-3.7c0.2-0.7,0.7-1.4,1.5-1.9
				c0.8-0.6,1.7-0.8,2.9-0.8c0.9,0,1.6,0.2,2.3,0.5c0.7,0.3,1.4,0.8,1.9,1.4v-6.4H131.9z M125,120.5c0-0.8-0.1-1.4-0.2-1.7
				c-0.1-0.3-0.4-0.4-0.8-0.4c-0.4,0-0.7,0.1-0.8,0.4c-0.1,0.3-0.2,0.8-0.2,1.7v11.1c0,0.9,0.1,1.5,0.2,1.8c0.1,0.3,0.4,0.4,0.8,0.4
				c0.4,0,0.7-0.2,0.9-0.5c0.1-0.3,0.2-1.1,0.2-2.4V120.5z"/>
			<path style="fill:#D88343;" d="M141.5,109.8v3.6h-7.1v-3.6H141.5z M141.5,114.8v22.7h-7.1v-22.7H141.5z"/>
			<path style="fill:#D88343;" d="M150.2,123.6h-6.5V122c0-1.8,0.2-3.1,0.6-4.1s1.2-1.8,2.4-2.5c1.2-0.7,2.8-1.1,4.8-1.1
				c2.3,0,4.1,0.4,5.3,1.2c1.2,0.8,1.9,1.8,2.1,3c0.2,1.2,0.4,3.7,0.4,7.4v11.4h-6.7v-2c-0.4,0.8-1,1.4-1.6,1.8
				c-0.7,0.4-1.5,0.6-2.4,0.6c-1.2,0-2.3-0.3-3.3-1c-1-0.7-1.5-2.2-1.5-4.5v-1.9c0-1.7,0.3-2.9,0.8-3.5c0.5-0.6,1.9-1.3,4-2.2
				c2.3-0.9,3.5-1.5,3.6-1.8c0.2-0.3,0.2-0.9,0.2-1.9c0-1.2-0.1-2-0.3-2.3c-0.2-0.4-0.5-0.5-0.9-0.5c-0.5,0-0.8,0.2-0.9,0.5
				c-0.1,0.3-0.2,1.1-0.2,2.3V123.6z M152.4,126.7c-1.1,0.8-1.7,1.5-1.9,2c-0.2,0.5-0.3,1.3-0.3,2.4c0,1.2,0.1,1.9,0.2,2.3
				c0.2,0.3,0.5,0.5,0.9,0.5c0.4,0,0.7-0.1,0.8-0.4c0.1-0.3,0.2-1,0.2-2.1V126.7z"/>
			<path style="fill:#D88343;" d="M168.5,114.8l-0.3,3c1-2.1,2.5-3.3,4.4-3.4v8c-1.3,0-2.2,0.2-2.8,0.5c-0.6,0.3-1,0.8-1.1,1.4
				c-0.1,0.6-0.2,2-0.2,4.2v9h-6.9v-22.7H168.5z"/>
			<path style="fill:#D88343;" d="M189.3,114.8l-2,16.4c-0.3,2.6-0.6,4.4-0.8,5.3c-0.2,0.9-0.6,1.7-1.1,2.3c-0.5,0.6-1.2,1.1-2,1.4
				c-0.9,0.3-2.3,0.4-4.2,0.4H175V137c1.1,0,1.8-0.1,2.1-0.2c0.3-0.1,0.5-0.4,0.5-0.7c0-0.2-0.1-1-0.4-2.4l-3.8-19h6.3l2.3,15.3
				l1.1-15.3H189.3z"/>
		</g>
	</g>
</g>
<g id="Layer_2" style="display:none;">
	<g id="_x32__2_" style="display:inline;">
		<g>
			<defs>
				<rect id="SVGID_1_" x="23.2" y="10.9" width="155" height="133.1"/>
			</defs>
			<clipPath id="SVGID_2_">
				<use xlink:href="#SVGID_1_"  style="display:none;overflow:visible;"/>
			</clipPath>
			<g style="clip-path:url(#SVGID_2_);">
				<path style="fill:#D88343;" d="M112.1,10.6v129.6H82.6l0-87.5l-11.7,87.5H49.9L37.6,54.7l0,85.5H8.1V10.6h43.6
					c1.3,7.8,2.6,17,4,27.6l4.8,33l7.7-60.5H112.1z"/>
			</g>
			<g style="clip-path:url(#SVGID_2_);">
				<path style="fill:#D88343;" d="M113.5,10.6h25.2c16.3,0,27.3,0.7,33,2.2c5.7,1.5,10.1,4,13.1,7.4c3,3.4,4.9,7.2,5.6,11.4
					c0.7,4.2,1.1,12.4,1.1,24.7v45.4c0,11.6-0.5,19.4-1.6,23.3c-1.1,3.9-3,7-5.7,9.2c-2.7,2.2-6.1,3.8-10.1,4.6
					c-4,0.9-10,1.3-18.1,1.3h-42.5V10.6z M147.2,32.8v85.3c4.9,0,7.8-1,9-2.9c1.1-1.9,1.7-7.2,1.7-15.9V48.9c0-5.9-0.2-9.6-0.6-11.3
					c-0.4-1.7-1.2-2.9-2.6-3.6C153.4,33.2,150.9,32.8,147.2,32.8z"/>
			</g>
		</g>
		<rect x="5" y="76.6" style="fill:#FFFFFF;" width="189.5" height="43.6"/>
		<g>
			<g>
				<path style="fill:#D88343;" d="M21.3,92.4l3.3-7.8c0.2-0.5,0.3-0.8,0.5-1.1c0.2-0.2,0.4-0.4,0.8-0.4h4.4c0.6,0,0.9,0.3,0.9,0.9
					c0,0.3-0.3,0.6-0.9,0.7c-0.6,0.2-0.9,0.3-1.1,0.6c-0.2,0.2-0.3,0.6-0.3,1.2v19c0,0.3,0.4,0.6,1.3,0.8c0.4,0.1,0.6,0.2,0.8,0.3
					c0.1,0.1,0.2,0.3,0.2,0.6c0,0.5-0.4,0.8-1.2,0.8h-4.6c-0.8,0-1.1-0.3-1.1-0.8c0-0.4,0.3-0.6,0.8-0.8c0.4-0.2,0.7-0.4,0.8-0.6
					c0.1-0.2,0.1-0.7,0.1-1.4V86.6L21.1,98l-2.6,5.2c-0.5,1-0.9,1.5-1.3,1.5c-0.3,0-0.6-0.3-1-1L12.6,96l-3.3-8.3L8.6,86v19.4
					c0.1,0.4,0.5,0.6,1.3,0.9c0.7,0.2,1.1,0.5,1.1,1c0,0.4-0.3,0.7-0.9,0.7H6c-0.8,0-1.2-0.3-1.2-0.8c0-0.4,0.3-0.6,0.8-0.8
					c0.5-0.2,0.8-0.4,0.9-0.6c0.1-0.2,0.1-0.5,0.1-1.1V86c0-0.6-0.1-0.9-0.3-1c-0.2-0.1-0.6-0.2-1.1-0.4c-0.5-0.1-0.8-0.4-0.8-0.7
					c0-0.5,0.3-0.8,0.9-0.8h4.5c0.2,0,0.4,0.1,0.6,0.3c0.2,0.2,0.3,0.4,0.4,0.7c0.1,0.3,0.2,0.5,0.3,0.9l6.4,15.2L21.3,92.4z"/>
				<path style="fill:#D88343;" d="M33.8,95.1c-0.1-1-0.4-1.6-0.8-1.9c-0.4-0.3-0.6-0.6-0.6-0.7c0-0.4,0.3-0.6,0.9-0.6h3.6
					c0.5,0,0.8,0.2,0.8,0.5c0,0.2-0.1,0.4-0.4,0.7c-0.3,0.2-0.5,0.5-0.7,0.7s-0.2,0.7-0.2,1.3c0,0.7,0.1,1.7,0.4,3
					c0.3,1.3,0.6,2.4,0.9,3.3c0.5,1.2,1.1,2.2,1.7,2.8c0.7,0.8,1.4,1.2,2,1.2c1.1,0,2-1.1,2.7-3.3c1-2.8,1.4-5,1.4-6.6
					c0-0.9-0.1-1.5-0.3-1.7c-0.2-0.3-0.5-0.5-0.8-0.7s-0.5-0.4-0.5-0.8c0-0.3,0.2-0.5,0.7-0.5h3c0.5,0,0.7,0.1,0.7,0.4
					c0,0.2,0,0.4-0.1,0.5c-0.3,0.6-0.6,1.2-0.7,1.7l-0.5,2.9c-0.5,3.4-1.8,6.9-3.8,10.6c-1,1.8-2.2,3.3-3.6,4.7
					c-1.4,1.4-2.9,2-4.5,2c-1.3,0-1.9-0.5-1.9-1.4c0-0.3,0.1-0.6,0.4-0.9c0.2-0.2,0.5-0.4,0.9-0.4c0.2,0,0.5,0,0.9,0.1
					c0.4,0.1,0.7,0.1,0.9,0.1c1,0,2.1-0.7,3.3-2c1.2-1.3,2-2.5,2.3-3.6c-0.7,0.2-1.2,0.3-1.6,0.3c-1.7,0-3.1-1.2-4.4-3.5
					c-1-1.9-1.6-4.2-2-7L33.8,95.1z"/>
				<path style="fill:#D88343;" d="M66.8,92.4l3.3-7.8c0.2-0.5,0.3-0.8,0.5-1.1c0.2-0.2,0.4-0.4,0.8-0.4h4.4c0.6,0,0.9,0.3,0.9,0.9
					c0,0.3-0.3,0.6-0.9,0.7c-0.6,0.2-0.9,0.3-1.1,0.6c-0.2,0.2-0.3,0.6-0.3,1.2v19c0,0.3,0.4,0.6,1.3,0.8c0.4,0.1,0.6,0.2,0.8,0.3
					c0.1,0.1,0.2,0.3,0.2,0.6c0,0.5-0.4,0.8-1.2,0.8h-4.6c-0.8,0-1.1-0.3-1.1-0.8c0-0.4,0.3-0.6,0.8-0.8c0.4-0.2,0.7-0.4,0.8-0.6
					c0.1-0.2,0.1-0.7,0.1-1.4V86.6L66.5,98l-2.6,5.2c-0.5,1-0.9,1.5-1.3,1.5c-0.3,0-0.6-0.3-1-1L58,96l-3.3-8.3L54,86v19.4
					c0.1,0.4,0.5,0.6,1.3,0.9c0.7,0.2,1.1,0.5,1.1,1c0,0.4-0.3,0.7-0.9,0.7h-4c-0.8,0-1.2-0.3-1.2-0.8c0-0.4,0.3-0.6,0.8-0.8
					c0.5-0.2,0.8-0.4,0.9-0.6c0.1-0.2,0.1-0.5,0.1-1.1V86c0-0.6-0.1-0.9-0.3-1s-0.6-0.2-1.1-0.4c-0.5-0.1-0.8-0.4-0.8-0.7
					c0-0.5,0.3-0.8,0.9-0.8h4.5c0.2,0,0.4,0.1,0.6,0.3c0.2,0.2,0.3,0.4,0.4,0.7c0.1,0.3,0.2,0.5,0.3,0.9l6.4,15.2L66.8,92.4z"/>
				<path style="fill:#D88343;" d="M81.7,102.1c0.2,1.4,0.9,2.4,1.9,3.3c1.1,0.8,2.3,1.2,3.7,1.2c1.1,0,2-0.2,2.7-0.6
					c0.7-0.4,1.3-0.9,1.9-1.4c0.6-0.6,1-0.8,1.2-0.8c0.4,0,0.6,0.2,0.6,0.6c0,0.7-0.7,1.6-2.1,2.6c-1.5,1-3.1,1.5-4.9,1.5
					c-2.2,0-4.1-0.7-5.7-2.2s-2.3-3.3-2.3-5.5c0-1.6,0.4-3.1,1.2-4.5c0.8-1.4,1.9-2.5,3.2-3.3c1.4-0.8,2.9-1.2,4.5-1.2
					c1.4,0,2.5,0.3,3.4,0.9c1.4,0.8,2.1,2,2.1,3.4c0,2.1-1.4,3.6-4.1,4.6c-1.3,0.5-3.5,1-6.9,1.4L81.7,102.1z M81.6,100.6
					c6-0.5,9-2,9-4.6c0-0.9-0.3-1.5-0.8-1.9c-0.6-0.4-1.3-0.6-2.2-0.6c-2,0-3.5,0.7-4.5,2.1c-1.1,1.4-1.6,3.1-1.6,5.1H81.6z"/>
				<path style="fill:#D88343;" d="M107.4,85.6c0-0.3-0.1-0.5-0.3-0.6c-0.2-0.1-0.5-0.2-0.9-0.4c-0.4-0.2-0.5-0.4-0.5-0.5
					c0-0.2,0.2-0.4,0.7-0.7c1.5-0.7,2.5-1,2.9-1c0.5,0,0.8,0.4,0.8,1.3v21.6c0,0.5,0.2,0.8,0.6,1l0.4,0.2c0.4,0.2,0.6,0.4,0.6,0.7
					c0,0.3-0.1,0.5-0.3,0.6c-0.2,0.1-0.5,0.1-1,0.1h-2.1c-0.3,0-0.5-0.7-0.5-2.1c-1.4,1.7-3.1,2.6-5.1,2.6c-1.4,0-2.7-0.4-3.8-1.1
					c-1.1-0.7-1.9-1.7-2.5-3c-0.6-1.2-0.9-2.6-0.9-4c0-1.5,0.3-2.9,1-4.3c0.6-1.4,1.6-2.4,2.7-3.2c1.2-0.8,2.6-1.2,4.1-1.2
					c1.4,0,2.8,0.5,4.3,1.5V85.6z M107.4,94.8c-0.9-0.5-1.6-0.9-2.2-1.1c-0.5-0.2-1.2-0.3-2-0.3c-1.7,0-3,0.7-3.9,2
					c-0.9,1.3-1.4,2.9-1.4,4.6c0,1.8,0.4,3.4,1.3,4.7c0.9,1.3,2.2,1.9,3.9,1.9c1.5,0,2.7-0.5,3.6-1.4c0.4-0.4,0.7-1,0.7-1.9V94.8z"
					/>
				<path style="fill:#D88343;" d="M121.6,83.1c2.3,0,4.2,0.2,5.7,0.5s3,1,4.4,2c3.1,2.4,4.7,5.7,4.7,10c0,3.6-1.2,6.5-3.5,9
					c-1.3,1.3-2.7,2.2-4.2,2.6c-1.5,0.5-3.3,0.7-5.3,0.7h-8.8c-0.8,0-1.2-0.3-1.2-0.8c0-0.4,0.3-0.7,0.8-0.8c0.6-0.2,0.9-0.4,1-0.7
					c0.1-0.2,0.2-0.7,0.2-1.4V85.6c0-0.3-0.4-0.6-1.1-0.8c-0.6-0.2-0.9-0.5-0.9-0.9c0-0.5,0.4-0.8,1.1-0.8H121.6z M118.5,102
					c0,1.3,0.1,2.3,0.2,2.8c0.1,0.5,0.4,0.9,0.9,1.1c0.5,0.2,1.4,0.3,2.6,0.3c2.2,0,4.1-0.4,5.7-1.2c1.6-0.8,2.9-2,3.7-3.6
					c0.9-1.6,1.3-3.5,1.3-5.7c0-1.6-0.2-3.1-0.7-4.5c-0.5-1.4-1.2-2.6-2.3-3.6c-1.8-1.8-4.5-2.6-8.1-2.6c-1,0-1.8,0.1-2.3,0.3
					c-0.5,0.2-0.8,0.5-0.9,1c-0.1,0.5-0.2,1.2-0.2,2.2V102z"/>
				<path style="fill:#D88343;" d="M139.9,108c-0.8,0-1.1-0.3-1.1-0.8c0-0.3,0.2-0.6,0.6-0.7c0.5-0.1,0.8-0.4,1-0.7s0.2-0.8,0.2-1.5
					v-7.2c-0.1-1.1-0.2-1.8-0.2-2.1c-0.1-0.3-0.5-0.5-1.2-0.6c-0.5-0.2-0.8-0.4-0.8-0.7c0-0.2,0.1-0.3,0.2-0.4
					c0.2-0.2,1-0.6,2.1-1.1c0.8-0.4,1.2-0.6,1.3-0.6c0.4,0,0.6,0.1,0.7,0.4c0.1,0.3,0.2,0.7,0.3,1.2c0.1,0.8,0.1,2.1,0.1,3.8v6.8
					c0,1.1,0.1,1.8,0.2,2.1c0.1,0.2,0.4,0.4,0.8,0.5c0.5,0.2,0.7,0.4,0.7,0.7c0,0.5-0.4,0.8-1.1,0.8H139.9z M139.4,87.3
					c0-0.5,0.2-1,0.6-1.3c0.4-0.4,0.8-0.5,1.4-0.5c0.5,0,1,0.2,1.3,0.5c0.4,0.3,0.5,0.8,0.5,1.2c0,0.6-0.2,1.1-0.5,1.4
					c-0.4,0.4-0.8,0.5-1.4,0.5c-0.5,0-1-0.2-1.3-0.6C139.6,88.2,139.4,87.7,139.4,87.3z"/>
				<path style="fill:#D88343;" d="M160.2,103.8c0,1.1,0.1,1.8,0.2,2.1c0.1,0.2,0.4,0.4,0.9,0.5c0.5,0.2,0.7,0.4,0.7,0.7
					c0,0.5-0.4,0.8-1.3,0.8h-1.5c-0.6,0-0.9-0.1-1.1-0.4c-0.1-0.2-0.2-0.7-0.2-1.4v-0.9c-1.3,2.1-3.2,3.2-5.6,3.2
					c-1.6,0-3-0.4-4.1-1.3c-1.1-0.8-1.7-2-1.7-3.6c0-1.9,1-3.5,2.9-4.8c1.7-1,3.7-1.5,6.2-1.5l2.1,0.1c-0.1-1.2-0.6-2.2-1.5-3
					c-0.9-0.8-2-1.1-3.2-1.1c-1,0-2,0.3-3.1,0.9c-0.8,0.4-1.3,0.7-1.5,0.7c-0.7,0-1-0.3-1-0.9c0-0.6,0.5-1,1.4-1.4
					c1.3-0.6,2.6-0.9,4.2-0.9c2,0,3.7,0.5,5.1,1.6c1.5,1.1,2.2,2.8,2.2,5V103.8z M156.1,98.8c-1.1,0-2.2,0.2-3.2,0.5
					c-1.1,0.3-1.9,0.8-2.6,1.5c-0.7,0.7-1.1,1.6-1.1,2.7c0,0.9,0.3,1.6,0.9,2.1c0.8,0.7,1.6,1,2.5,1c1.5,0,2.8-0.4,3.8-1.3
					c0.9-0.7,1.3-1.9,1.3-3.6v-2.8L156.1,98.8z"/>
				<path style="fill:#D88343;" d="M168.2,105.2c0,0.4,0.1,0.7,0.3,0.9c0.2,0.1,0.4,0.3,0.8,0.4c0.4,0.2,0.6,0.5,0.6,0.7
					c0,0.5-0.4,0.8-1.1,0.8h-3.6c-0.8,0-1.1-0.3-1.1-0.8c0-0.3,0.2-0.5,0.5-0.7c0.4-0.1,0.6-0.2,0.8-0.4c0.2-0.2,0.3-0.5,0.3-0.9V97
					c0-1.2-0.5-2-1.4-2.5c-0.6-0.2-0.8-0.4-0.8-0.7c0-0.3,0.3-0.7,0.9-1.1c0.9-0.7,1.5-1,1.9-1c0.6,0,1,0.4,1.2,1.2
					c0.2,0.8,0.4,1.8,0.7,3.1c0.4-1,1-2,1.9-2.9c0.9-0.9,1.7-1.4,2.6-1.4c1.3,0,1.9,0.7,1.9,2.1c0,0.8-0.3,1.3-0.8,1.3
					c-0.2,0-0.5-0.1-1-0.4c-0.5-0.2-0.8-0.4-1.1-0.4c-0.8,0-1.6,0.7-2.5,2.1c-0.7,1-1,2.2-1,3.5V105.2z"/>
				<path style="fill:#D88343;" d="M176.1,95.1c-0.1-1-0.4-1.6-0.8-1.9c-0.4-0.3-0.6-0.6-0.6-0.7c0-0.4,0.3-0.6,0.9-0.6h3.6
					c0.5,0,0.8,0.2,0.8,0.5c0,0.2-0.1,0.4-0.4,0.7c-0.3,0.2-0.5,0.5-0.7,0.7s-0.2,0.7-0.2,1.3c0,0.7,0.1,1.7,0.4,3
					c0.3,1.3,0.6,2.4,0.9,3.3c0.5,1.2,1.1,2.2,1.7,2.8c0.7,0.8,1.4,1.2,2,1.2c1.1,0,2-1.1,2.7-3.3c1-2.8,1.4-5,1.4-6.6
					c0-0.9-0.1-1.5-0.3-1.7c-0.2-0.3-0.5-0.5-0.8-0.7c-0.3-0.2-0.5-0.4-0.5-0.8c0-0.3,0.2-0.5,0.7-0.5h3c0.5,0,0.7,0.1,0.7,0.4
					c0,0.2,0,0.4-0.1,0.5c-0.3,0.6-0.6,1.2-0.7,1.7l-0.5,2.9c-0.5,3.4-1.8,6.9-3.8,10.6c-1,1.8-2.2,3.3-3.6,4.7
					c-1.4,1.4-2.9,2-4.5,2c-1.3,0-1.9-0.5-1.9-1.4c0-0.3,0.1-0.6,0.4-0.9c0.2-0.2,0.5-0.4,0.9-0.4c0.2,0,0.5,0,0.9,0.1
					c0.4,0.1,0.7,0.1,0.9,0.1c1,0,2.1-0.7,3.3-2c1.2-1.3,2-2.5,2.3-3.6c-0.7,0.2-1.2,0.3-1.6,0.3c-1.7,0-3.1-1.2-4.4-3.5
					c-1-1.9-1.6-4.2-2-7L176.1,95.1z"/>
			</g>
			<g>
				<path style="fill:#38A4B5;" d="M21.3,92.4l3.3-7.8c0.2-0.5,0.3-0.8,0.5-1.1c0.2-0.2,0.4-0.4,0.8-0.4h4.4c0.6,0,0.9,0.3,0.9,0.9
					c0,0.3-0.3,0.6-0.9,0.7c-0.6,0.2-0.9,0.3-1.1,0.6c-0.2,0.2-0.3,0.6-0.3,1.2v19c0,0.3,0.4,0.6,1.3,0.8c0.4,0.1,0.6,0.2,0.8,0.3
					c0.1,0.1,0.2,0.3,0.2,0.6c0,0.5-0.4,0.8-1.2,0.8h-4.6c-0.8,0-1.1-0.3-1.1-0.8c0-0.4,0.3-0.6,0.8-0.8c0.4-0.2,0.7-0.4,0.8-0.6
					c0.1-0.2,0.1-0.7,0.1-1.4V86.6L21.1,98l-2.6,5.2c-0.5,1-0.9,1.5-1.3,1.5c-0.3,0-0.6-0.3-1-1L12.6,96l-3.3-8.3L8.6,86v19.4
					c0.1,0.4,0.5,0.6,1.3,0.9c0.7,0.2,1.1,0.5,1.1,1c0,0.4-0.3,0.7-0.9,0.7H6c-0.8,0-1.2-0.3-1.2-0.8c0-0.4,0.3-0.6,0.8-0.8
					c0.5-0.2,0.8-0.4,0.9-0.6c0.1-0.2,0.1-0.5,0.1-1.1V86c0-0.6-0.1-0.9-0.3-1c-0.2-0.1-0.6-0.2-1.1-0.4c-0.5-0.1-0.8-0.4-0.8-0.7
					c0-0.5,0.3-0.8,0.9-0.8h4.5c0.2,0,0.4,0.1,0.6,0.3c0.2,0.2,0.3,0.4,0.4,0.7c0.1,0.3,0.2,0.5,0.3,0.9l6.4,15.2L21.3,92.4z"/>
				<path style="fill:#38A4B5;" d="M33.8,95.1c-0.1-1-0.4-1.6-0.8-1.9c-0.4-0.3-0.6-0.6-0.6-0.7c0-0.4,0.3-0.6,0.9-0.6h3.6
					c0.5,0,0.8,0.2,0.8,0.5c0,0.2-0.1,0.4-0.4,0.7c-0.3,0.2-0.5,0.5-0.7,0.7s-0.2,0.7-0.2,1.3c0,0.7,0.1,1.7,0.4,3
					c0.3,1.3,0.6,2.4,0.9,3.3c0.5,1.2,1.1,2.2,1.7,2.8c0.7,0.8,1.4,1.2,2,1.2c1.1,0,2-1.1,2.7-3.3c1-2.8,1.4-5,1.4-6.6
					c0-0.9-0.1-1.5-0.3-1.7c-0.2-0.3-0.5-0.5-0.8-0.7s-0.5-0.4-0.5-0.8c0-0.3,0.2-0.5,0.7-0.5h3c0.5,0,0.7,0.1,0.7,0.4
					c0,0.2,0,0.4-0.1,0.5c-0.3,0.6-0.6,1.2-0.7,1.7l-0.5,2.9c-0.5,3.4-1.8,6.9-3.8,10.6c-1,1.8-2.2,3.3-3.6,4.7
					c-1.4,1.4-2.9,2-4.5,2c-1.3,0-1.9-0.5-1.9-1.4c0-0.3,0.1-0.6,0.4-0.9c0.2-0.2,0.5-0.4,0.9-0.4c0.2,0,0.5,0,0.9,0.1
					c0.4,0.1,0.7,0.1,0.9,0.1c1,0,2.1-0.7,3.3-2c1.2-1.3,2-2.5,2.3-3.6c-0.7,0.2-1.2,0.3-1.6,0.3c-1.7,0-3.1-1.2-4.4-3.5
					c-1-1.9-1.6-4.2-2-7L33.8,95.1z"/>
				<path style="fill:#38A4B5;" d="M66.8,92.4l3.3-7.8c0.2-0.5,0.3-0.8,0.5-1.1c0.2-0.2,0.4-0.4,0.8-0.4h4.4c0.6,0,0.9,0.3,0.9,0.9
					c0,0.3-0.3,0.6-0.9,0.7c-0.6,0.2-0.9,0.3-1.1,0.6c-0.2,0.2-0.3,0.6-0.3,1.2v19c0,0.3,0.4,0.6,1.3,0.8c0.4,0.1,0.6,0.2,0.8,0.3
					c0.1,0.1,0.2,0.3,0.2,0.6c0,0.5-0.4,0.8-1.2,0.8h-4.6c-0.8,0-1.1-0.3-1.1-0.8c0-0.4,0.3-0.6,0.8-0.8c0.4-0.2,0.7-0.4,0.8-0.6
					c0.1-0.2,0.1-0.7,0.1-1.4V86.6L66.5,98l-2.6,5.2c-0.5,1-0.9,1.5-1.3,1.5c-0.3,0-0.6-0.3-1-1L58,96l-3.3-8.3L54,86v19.4
					c0.1,0.4,0.5,0.6,1.3,0.9c0.7,0.2,1.1,0.5,1.1,1c0,0.4-0.3,0.7-0.9,0.7h-4c-0.8,0-1.2-0.3-1.2-0.8c0-0.4,0.3-0.6,0.8-0.8
					c0.5-0.2,0.8-0.4,0.9-0.6c0.1-0.2,0.1-0.5,0.1-1.1V86c0-0.6-0.1-0.9-0.3-1s-0.6-0.2-1.1-0.4c-0.5-0.1-0.8-0.4-0.8-0.7
					c0-0.5,0.3-0.8,0.9-0.8h4.5c0.2,0,0.4,0.1,0.6,0.3c0.2,0.2,0.3,0.4,0.4,0.7c0.1,0.3,0.2,0.5,0.3,0.9l6.4,15.2L66.8,92.4z"/>
				<path style="fill:#38A4B5;" d="M81.7,102.1c0.2,1.4,0.9,2.4,1.9,3.3c1.1,0.8,2.3,1.2,3.7,1.2c1.1,0,2-0.2,2.7-0.6
					c0.7-0.4,1.3-0.9,1.9-1.4c0.6-0.6,1-0.8,1.2-0.8c0.4,0,0.6,0.2,0.6,0.6c0,0.7-0.7,1.6-2.1,2.6c-1.5,1-3.1,1.5-4.9,1.5
					c-2.2,0-4.1-0.7-5.7-2.2s-2.3-3.3-2.3-5.5c0-1.6,0.4-3.1,1.2-4.5c0.8-1.4,1.9-2.5,3.2-3.3c1.4-0.8,2.9-1.2,4.5-1.2
					c1.4,0,2.5,0.3,3.4,0.9c1.4,0.8,2.1,2,2.1,3.4c0,2.1-1.4,3.6-4.1,4.6c-1.3,0.5-3.5,1-6.9,1.4L81.7,102.1z M81.6,100.6
					c6-0.5,9-2,9-4.6c0-0.9-0.3-1.5-0.8-1.9c-0.6-0.4-1.3-0.6-2.2-0.6c-2,0-3.5,0.7-4.5,2.1c-1.1,1.4-1.6,3.1-1.6,5.1H81.6z"/>
				<path style="fill:#38A4B5;" d="M107.4,85.6c0-0.3-0.1-0.5-0.3-0.6c-0.2-0.1-0.5-0.2-0.9-0.4c-0.4-0.2-0.5-0.4-0.5-0.5
					c0-0.2,0.2-0.4,0.7-0.7c1.5-0.7,2.5-1,2.9-1c0.5,0,0.8,0.4,0.8,1.3v21.6c0,0.5,0.2,0.8,0.6,1l0.4,0.2c0.4,0.2,0.6,0.4,0.6,0.7
					c0,0.3-0.1,0.5-0.3,0.6c-0.2,0.1-0.5,0.1-1,0.1h-2.1c-0.3,0-0.5-0.7-0.5-2.1c-1.4,1.7-3.1,2.6-5.1,2.6c-1.4,0-2.7-0.4-3.8-1.1
					c-1.1-0.7-1.9-1.7-2.5-3c-0.6-1.2-0.9-2.6-0.9-4c0-1.5,0.3-2.9,1-4.3c0.6-1.4,1.6-2.4,2.7-3.2c1.2-0.8,2.6-1.2,4.1-1.2
					c1.4,0,2.8,0.5,4.3,1.5V85.6z M107.4,94.8c-0.9-0.5-1.6-0.9-2.2-1.1c-0.5-0.2-1.2-0.3-2-0.3c-1.7,0-3,0.7-3.9,2
					c-0.9,1.3-1.4,2.9-1.4,4.6c0,1.8,0.4,3.4,1.3,4.7c0.9,1.3,2.2,1.9,3.9,1.9c1.5,0,2.7-0.5,3.6-1.4c0.4-0.4,0.7-1,0.7-1.9V94.8z"
					/>
				<path style="fill:#38A4B5;" d="M121.6,83.1c2.3,0,4.2,0.2,5.7,0.5s3,1,4.4,2c3.1,2.4,4.7,5.7,4.7,10c0,3.6-1.2,6.5-3.5,9
					c-1.3,1.3-2.7,2.2-4.2,2.6c-1.5,0.5-3.3,0.7-5.3,0.7h-8.8c-0.8,0-1.2-0.3-1.2-0.8c0-0.4,0.3-0.7,0.8-0.8c0.6-0.2,0.9-0.4,1-0.7
					c0.1-0.2,0.2-0.7,0.2-1.4V85.6c0-0.3-0.4-0.6-1.1-0.8c-0.6-0.2-0.9-0.5-0.9-0.9c0-0.5,0.4-0.8,1.1-0.8H121.6z M118.5,102
					c0,1.3,0.1,2.3,0.2,2.8c0.1,0.5,0.4,0.9,0.9,1.1c0.5,0.2,1.4,0.3,2.6,0.3c2.2,0,4.1-0.4,5.7-1.2c1.6-0.8,2.9-2,3.7-3.6
					c0.9-1.6,1.3-3.5,1.3-5.7c0-1.6-0.2-3.1-0.7-4.5c-0.5-1.4-1.2-2.6-2.3-3.6c-1.8-1.8-4.5-2.6-8.1-2.6c-1,0-1.8,0.1-2.3,0.3
					c-0.5,0.2-0.8,0.5-0.9,1c-0.1,0.5-0.2,1.2-0.2,2.2V102z"/>
				<path style="fill:#38A4B5;" d="M139.9,108c-0.8,0-1.1-0.3-1.1-0.8c0-0.3,0.2-0.6,0.6-0.7c0.5-0.1,0.8-0.4,1-0.7s0.2-0.8,0.2-1.5
					v-7.2c-0.1-1.1-0.2-1.8-0.2-2.1c-0.1-0.3-0.5-0.5-1.2-0.6c-0.5-0.2-0.8-0.4-0.8-0.7c0-0.2,0.1-0.3,0.2-0.4
					c0.2-0.2,1-0.6,2.1-1.1c0.8-0.4,1.2-0.6,1.3-0.6c0.4,0,0.6,0.1,0.7,0.4c0.1,0.3,0.2,0.7,0.3,1.2c0.1,0.8,0.1,2.1,0.1,3.8v6.8
					c0,1.1,0.1,1.8,0.2,2.1c0.1,0.2,0.4,0.4,0.8,0.5c0.5,0.2,0.7,0.4,0.7,0.7c0,0.5-0.4,0.8-1.1,0.8H139.9z M139.4,87.3
					c0-0.5,0.2-1,0.6-1.3c0.4-0.4,0.8-0.5,1.4-0.5c0.5,0,1,0.2,1.3,0.5c0.4,0.3,0.5,0.8,0.5,1.2c0,0.6-0.2,1.1-0.5,1.4
					c-0.4,0.4-0.8,0.5-1.4,0.5c-0.5,0-1-0.2-1.3-0.6C139.6,88.2,139.4,87.7,139.4,87.3z"/>
				<path style="fill:#38A4B5;" d="M160.2,103.8c0,1.1,0.1,1.8,0.2,2.1c0.1,0.2,0.4,0.4,0.9,0.5c0.5,0.2,0.7,0.4,0.7,0.7
					c0,0.5-0.4,0.8-1.3,0.8h-1.5c-0.6,0-0.9-0.1-1.1-0.4c-0.1-0.2-0.2-0.7-0.2-1.4v-0.9c-1.3,2.1-3.2,3.2-5.6,3.2
					c-1.6,0-3-0.4-4.1-1.3c-1.1-0.8-1.7-2-1.7-3.6c0-1.9,1-3.5,2.9-4.8c1.7-1,3.7-1.5,6.2-1.5l2.1,0.1c-0.1-1.2-0.6-2.2-1.5-3
					c-0.9-0.8-2-1.1-3.2-1.1c-1,0-2,0.3-3.1,0.9c-0.8,0.4-1.3,0.7-1.5,0.7c-0.7,0-1-0.3-1-0.9c0-0.6,0.5-1,1.4-1.4
					c1.3-0.6,2.6-0.9,4.2-0.9c2,0,3.7,0.5,5.1,1.6c1.5,1.1,2.2,2.8,2.2,5V103.8z M156.1,98.8c-1.1,0-2.2,0.2-3.2,0.5
					c-1.1,0.3-1.9,0.8-2.6,1.5c-0.7,0.7-1.1,1.6-1.1,2.7c0,0.9,0.3,1.6,0.9,2.1c0.8,0.7,1.6,1,2.5,1c1.5,0,2.8-0.4,3.8-1.3
					c0.9-0.7,1.3-1.9,1.3-3.6v-2.8L156.1,98.8z"/>
				<path style="fill:#38A4B5;" d="M168.2,105.2c0,0.4,0.1,0.7,0.3,0.9c0.2,0.1,0.4,0.3,0.8,0.4c0.4,0.2,0.6,0.5,0.6,0.7
					c0,0.5-0.4,0.8-1.1,0.8h-3.6c-0.8,0-1.1-0.3-1.1-0.8c0-0.3,0.2-0.5,0.5-0.7c0.4-0.1,0.6-0.2,0.8-0.4c0.2-0.2,0.3-0.5,0.3-0.9V97
					c0-1.2-0.5-2-1.4-2.5c-0.6-0.2-0.8-0.4-0.8-0.7c0-0.3,0.3-0.7,0.9-1.1c0.9-0.7,1.5-1,1.9-1c0.6,0,1,0.4,1.2,1.2
					c0.2,0.8,0.4,1.8,0.7,3.1c0.4-1,1-2,1.9-2.9c0.9-0.9,1.7-1.4,2.6-1.4c1.3,0,1.9,0.7,1.9,2.1c0,0.8-0.3,1.3-0.8,1.3
					c-0.2,0-0.5-0.1-1-0.4c-0.5-0.2-0.8-0.4-1.1-0.4c-0.8,0-1.6,0.7-2.5,2.1c-0.7,1-1,2.2-1,3.5V105.2z"/>
				<path style="fill:#38A4B5;" d="M176.1,95.1c-0.1-1-0.4-1.6-0.8-1.9c-0.4-0.3-0.6-0.6-0.6-0.7c0-0.4,0.3-0.6,0.9-0.6h3.6
					c0.5,0,0.8,0.2,0.8,0.5c0,0.2-0.1,0.4-0.4,0.7c-0.3,0.2-0.5,0.5-0.7,0.7s-0.2,0.7-0.2,1.3c0,0.7,0.1,1.7,0.4,3
					c0.3,1.3,0.6,2.4,0.9,3.3c0.5,1.2,1.1,2.2,1.7,2.8c0.7,0.8,1.4,1.2,2,1.2c1.1,0,2-1.1,2.7-3.3c1-2.8,1.4-5,1.4-6.6
					c0-0.9-0.1-1.5-0.3-1.7c-0.2-0.3-0.5-0.5-0.8-0.7c-0.3-0.2-0.5-0.4-0.5-0.8c0-0.3,0.2-0.5,0.7-0.5h3c0.5,0,0.7,0.1,0.7,0.4
					c0,0.2,0,0.4-0.1,0.5c-0.3,0.6-0.6,1.2-0.7,1.7l-0.5,2.9c-0.5,3.4-1.8,6.9-3.8,10.6c-1,1.8-2.2,3.3-3.6,4.7
					c-1.4,1.4-2.9,2-4.5,2c-1.3,0-1.9-0.5-1.9-1.4c0-0.3,0.1-0.6,0.4-0.9c0.2-0.2,0.5-0.4,0.9-0.4c0.2,0,0.5,0,0.9,0.1
					c0.4,0.1,0.7,0.1,0.9,0.1c1,0,2.1-0.7,3.3-2c1.2-1.3,2-2.5,2.3-3.6c-0.7,0.2-1.2,0.3-1.6,0.3c-1.7,0-3.1-1.2-4.4-3.5
					c-1-1.9-1.6-4.2-2-7L176.1,95.1z"/>
			</g>
		</g>
	</g>
</g>
<g id="Layer_3">
	<g id="_x31__3_">
		<g>
			<path style="fill:#D88343;" d="M118.3,136.8c-0.7,1-1.5,1.8-2.4,2.3c-0.9,0.5-2,0.8-3.1,0.8c-1.6,0-2.8-0.6-3.7-1.8
				c-0.9-1.2-1.4-2.8-1.4-4.8c0-1.7,0.3-3.3,0.8-4.9c0.5-1.6,1.3-2.9,2.4-4.2c0.7-0.8,1.5-1.4,2.3-1.9c0.9-0.4,1.8-0.6,2.7-0.6
				c1,0,1.9,0.3,2.7,0.8c0.8,0.5,1.4,1.3,1.8,2.3l1.7-9.4h2.6l-4.2,24.1h-2.6L118.3,136.8z M110.4,132.7c0,1.5,0.3,2.7,0.9,3.5
				c0.6,0.8,1.5,1.3,2.5,1.3c0.8,0,1.5-0.2,2.2-0.6s1.3-1.1,1.8-1.9c0.5-0.9,1-1.9,1.3-3s0.5-2.3,0.5-3.4c0-1.4-0.3-2.6-0.9-3.4
				c-0.6-0.8-1.4-1.2-2.5-1.2c-0.8,0-1.6,0.2-2.3,0.6c-0.7,0.4-1.3,1-1.8,1.8c-0.5,0.9-1,1.9-1.3,3
				C110.6,130.6,110.4,131.7,110.4,132.7z"/>
			<path style="fill:#D88343;" d="M127.2,115.3h2.6v3.6h-2.6V115.3z M127.2,122.1h2.6v17.3h-2.6V122.1z"/>
			<path style="fill:#D88343;" d="M147.3,129.5v9.9h-2.6v-2.6c-0.6,1.1-1.3,1.8-2.2,2.3c-0.9,0.5-1.9,0.8-3.2,0.8
				c-1.6,0-2.9-0.5-3.8-1.5c-0.9-1-1.4-2.3-1.4-4c0-1.9,0.6-3.4,1.8-4.4s2.9-1.5,5.3-1.5h3.6v-0.3c0-1.3-0.4-2.3-1.2-3
				c-0.8-0.7-1.9-1.1-3.3-1.1c-0.9,0-1.8,0.1-2.6,0.4c-0.8,0.2-1.7,0.6-2.4,1.1v-2.6c0.9-0.4,1.8-0.7,2.7-0.9
				c0.9-0.2,1.7-0.3,2.6-0.3c2.3,0,3.9,0.6,5.1,1.9S147.3,126.9,147.3,129.5z M142.2,130.7c-2.1,0-3.5,0.3-4.3,0.8
				c-0.8,0.5-1.2,1.4-1.2,2.7c0,1,0.3,1.8,0.9,2.4s1.4,0.9,2.4,0.9c1.4,0,2.6-0.6,3.4-1.7c0.9-1.1,1.3-2.6,1.3-4.5v-0.6H142.2z"/>
			<path style="fill:#D88343;" d="M161.6,124.7c-0.3-0.2-0.6-0.3-0.9-0.4c-0.3-0.1-0.7-0.1-1.1-0.1c-1.5,0-2.6,0.5-3.3,1.6
				c-0.8,1-1.2,2.6-1.2,4.5v9.1h-2.6v-17.3h2.6v2.7c0.5-1.1,1.2-1.8,2.1-2.3c0.9-0.5,1.9-0.8,3.1-0.8c0.2,0,0.4,0,0.6,0
				c0.2,0,0.5,0.1,0.7,0.1L161.6,124.7z"/>
			<path style="fill:#D88343;" d="M170.8,141c-0.7,2.1-1.4,3.4-2.1,4c-0.7,0.6-1.6,0.9-2.8,0.9h-2v-2.4h1.5c0.7,0,1.2-0.2,1.6-0.6
				c0.4-0.4,0.8-1.2,1.3-2.6l0.5-1.3l-6.3-17h2.7l4.9,13.6l4.9-13.6h2.7L170.8,141z"/>
		</g>
		<g>
			<path style="fill:#38A4B5;" d="M31.3,125.4c0.6-1.3,1.4-2.2,2.3-2.8c0.9-0.6,1.9-0.9,3.1-0.9c1.6,0,2.9,0.6,3.8,1.9
				c0.9,1.3,1.3,3.1,1.3,5.4v10.5h-2.6V129c0-1.7-0.3-2.9-0.8-3.7c-0.5-0.8-1.3-1.2-2.4-1.2c-1.3,0-2.4,0.5-3.1,1.5
				c-0.8,1-1.2,2.3-1.2,4v9.8h-2.6V129c0-1.7-0.3-2.9-0.8-3.7c-0.5-0.8-1.3-1.2-2.5-1.2c-1.3,0-2.3,0.5-3.1,1.5
				c-0.8,1-1.2,2.3-1.2,4v9.8h-2.6v-17.3h2.6v2.7c0.6-1.1,1.3-1.8,2.1-2.4c0.8-0.5,1.8-0.8,2.9-0.8c1.1,0,2.1,0.3,2.9,1
				C30.4,123.3,30.9,124.2,31.3,125.4z"/>
			<path style="fill:#38A4B5;" d="M53.4,141c-0.7,2.1-1.4,3.4-2.1,4c-0.7,0.6-1.6,0.9-2.8,0.9h-2v-2.4H48c0.7,0,1.2-0.2,1.6-0.6
				c0.4-0.4,0.8-1.2,1.3-2.6l0.5-1.3l-6.3-17h2.7l4.9,13.6l4.9-13.6h2.7L53.4,141z"/>
			<path style="fill:#38A4B5;" d="M75.9,125.4c0.6-1.3,1.4-2.2,2.3-2.8c0.9-0.6,1.9-0.9,3.1-0.9c1.6,0,2.9,0.6,3.8,1.9
				c0.9,1.3,1.3,3.1,1.3,5.4v10.5h-2.6V129c0-1.7-0.3-2.9-0.8-3.7c-0.5-0.8-1.3-1.2-2.4-1.2c-1.3,0-2.4,0.5-3.1,1.5
				c-0.8,1-1.2,2.3-1.2,4v9.8h-2.6V129c0-1.7-0.3-2.9-0.8-3.7c-0.5-0.8-1.3-1.2-2.5-1.2c-1.3,0-2.3,0.5-3.1,1.5
				c-0.8,1-1.2,2.3-1.2,4v9.8h-2.6v-17.3h2.6v2.7c0.6-1.1,1.3-1.8,2.1-2.4c0.8-0.5,1.8-0.8,2.9-0.8c1.1,0,2.1,0.3,2.9,1
				C75,123.3,75.6,124.2,75.9,125.4z"/>
			<path style="fill:#38A4B5;" d="M104.9,130v1.4H93.1c0.1,2,0.6,3.5,1.6,4.5c1,1,2.3,1.5,4,1.5c1,0,1.9-0.1,2.9-0.4
				c0.9-0.3,1.8-0.7,2.7-1.2v2.7c-0.9,0.4-1.9,0.8-2.8,1c-1,0.2-1.9,0.3-2.9,0.3c-2.5,0-4.5-0.8-5.9-2.4s-2.2-3.8-2.2-6.5
				c0-2.8,0.7-5.1,2.1-6.8c1.4-1.7,3.2-2.5,5.6-2.5c2.1,0,3.8,0.8,5,2.3C104.3,125.4,104.9,127.5,104.9,130z M102.3,129.2
				c0-1.6-0.4-2.8-1.2-3.7c-0.8-0.9-1.8-1.4-3-1.4c-1.4,0-2.6,0.4-3.4,1.3c-0.9,0.9-1.4,2.2-1.5,3.8L102.3,129.2z"/>
		</g>
		<g>
			<g>
				<path style="fill:#D88343;" d="M96.7,0.9h27.7c19.4,0,33.6,4.5,42.6,13.4c9,8.9,13.6,22.9,13.6,41.9c0,19.1-4.5,33.1-13.6,42.1
					c-9.1,9-23.3,13.4-42.5,13.4H96.7V0.9z M110.2,13.2v86.2h16.3c13.8,0,23.8-3.5,30.3-10.4c6.4-6.9,9.6-17.9,9.6-32.8
					c0-14.9-3.2-25.7-9.6-32.6c-6.4-6.9-16.5-10.4-30.3-10.4H110.2z"/>
			</g>
			<g>
				<path style="fill:#38A4B5;" d="M18.9,0.9H39l25.5,75.4L90.1,0.9h20.1v110.9H97V14.4l-25.8,76H57.8L32,14.4v97.4H18.9V0.9z"/>
			</g>
		</g>
	</g>
</g>
</svg>
